<svg width="18" height="24" viewBox="0 0 18 24" version="1.1" xmlns="http://www.w3.org/2000/svg" xmlns:xlink="http://www.w3.org/1999/xlink">
<title>Fill 3</title>
<desc>Created using Figma</desc>
<g id="Canvas" transform="translate(11965 14462)">
<g id="Fill 3" opacity="0.54">
<use xlink:href="#path0_fill" transform="translate(-11964.8 -14461.3)" fill="#00BBD3"/>
</g>
</g>
<defs>
<path id="path0_fill" fill-rule="evenodd" d="M 16.249 5.00098L 1.24902 5.00098L 1.24902 20.001C 1.24902 21.381 2.36902 22.501 3.75027 22.501L 13.749 22.501C 15.1315 22.501 16.249 21.381 16.249 20.001L 16.249 5.00098L 16.249 5.00098ZM 11.8737 0L 5.62375 0L 4.375 1.25125L 1.24875 1.25125C 0.56 1.25125 0 1.81125 0 2.5L 0 3.75125L 17.5 3.75125L 17.5 2.5C 17.5 1.81125 16.94 1.25125 16.2487 1.25125L 13.125 1.25125L 11.8737 0L 11.8737 0Z"/>
</defs>
</svg>
